<?xml version="1.0" ?><svg id="Layer_1" style="enable-background:new 0 0 80 75;" fill="white" version="1.1" viewBox="0 0 80 75" xml:space="preserve" xmlns="http://www.w3.org/2000/svg" xmlns:xlink="http://www.w3.org/1999/xlink"><title/><g id="Layer_2"><g id="Layer_3"><path d="M53.4,10.4V4.7h-3v5.7h-8.5V4.7h-3v5.7h-9.1V4.7h-3v5.7H5.4v59.9h69.1V10.4H53.4z M26.8,13.4V19h3v-5.7H39V19h3v-5.7h8.5    V19h3v-5.7h18.1v44.2H8.4V13.4H26.8z M8.4,67.3v-6.7h63.1v6.7L8.4,67.3z"/><rect height="5.7" width="5.7" x="22.6" y="30"/><rect height="5.7" width="5.7" x="37.1" y="30"/><rect height="5.7" width="5.7" x="51.7" y="30"/><rect height="5.7" width="5.7" x="22.6" y="44.6"/><rect height="5.7" width="5.7" x="37.1" y="44.6"/><rect height="5.7" width="5.7" x="51.7" y="44.6"/></g></g></svg>
